<?xml version="1.0" encoding="iso-8859-1"?>
<!-- Generator: Adobe Illustrator 19.0.0, SVG Export Plug-In . SVG Version: 6.00 Build 0)  -->
<svg version="1.1" id="Capa_1" xmlns="http://www.w3.org/2000/svg" xmlns:xlink="http://www.w3.org/1999/xlink" x="0px" y="0px"
	 viewBox="0 0 512 512" style="enable-background:new 0 0 512 512;" xml:space="preserve">
<polyline style="fill:#55B56A;" points="110.933,247.467 51.2,247.467 51.2,8.533 460.8,8.533 460.8,247.467 179.2,247.467 "/>
<g>
	<circle style="fill:#FFD782;" cx="435.2" cy="349.867" r="34.133"/>
	<path style="fill:#FFD782;" d="M435.2,392.533c-23.561,0-42.667-19.106-42.667-42.667c0-23.561,19.106-42.667,42.667-42.667
		s42.667,19.106,42.667,42.667C477.841,373.419,458.752,392.508,435.2,392.533z M435.2,324.267c-14.14,0-25.6,11.46-25.6,25.6
		c0,14.14,11.46,25.6,25.6,25.6c14.14,0,25.6-11.46,25.6-25.6C460.8,335.727,449.34,324.267,435.2,324.267z"/>
</g>
<g>
	<rect x="401.067" y="418.133" style="fill:#32B1CC;" width="68.267" height="85.333"/>
	<path style="fill:#32B1CC;" d="M469.333,512h-68.267c-4.71,0-8.533-3.823-8.533-8.533v-85.333c0-4.71,3.823-8.533,8.533-8.533
		h68.267c4.71,0,8.533,3.823,8.533,8.533v85.333C477.867,508.177,474.044,512,469.333,512z M409.6,494.933h51.2v-68.267h-51.2
		V494.933z"/>
</g>
<g>
	<circle style="fill:#FFD782;" cx="76.8" cy="349.867" r="34.133"/>
	<path style="fill:#FFD782;" d="M76.8,392.533c-23.561,0-42.667-19.106-42.667-42.667c0-23.561,19.106-42.667,42.667-42.667
		s42.667,19.106,42.667,42.667C119.441,373.419,100.352,392.508,76.8,392.533z M76.8,324.267c-14.14,0-25.6,11.46-25.6,25.6
		c0,14.14,11.46,25.6,25.6,25.6s25.6-11.46,25.6-25.6C102.4,335.727,90.94,324.267,76.8,324.267z"/>
</g>
<g>
	<rect x="42.667" y="418.133" style="fill:#32B1CC;" width="68.267" height="85.333"/>
	<path style="fill:#32B1CC;" d="M110.933,512H42.667c-4.71,0-8.533-3.823-8.533-8.533v-85.333c0-4.71,3.823-8.533,8.533-8.533
		h68.267c4.71,0,8.533,3.823,8.533,8.533v85.333C119.467,508.177,115.644,512,110.933,512z M51.2,494.933h51.2v-68.267H51.2V494.933
		z"/>
</g>
<g>
	<circle style="fill:#FFD782;" cx="256" cy="349.867" r="34.133"/>
	<path style="fill:#FFD782;" d="M256,392.533c-23.561,0-42.667-19.106-42.667-42.667c0-23.561,19.106-42.667,42.667-42.667
		c23.561,0,42.667,19.106,42.667,42.667C298.641,373.419,279.552,392.508,256,392.533z M256,324.267c-14.14,0-25.6,11.46-25.6,25.6
		c0,14.14,11.46,25.6,25.6,25.6c14.14,0,25.6-11.46,25.6-25.6C281.6,335.727,270.14,324.267,256,324.267z"/>
</g>
<g>
	<rect x="221.867" y="418.133" style="fill:#32B1CC;" width="68.267" height="85.333"/>
	<path style="fill:#32B1CC;" d="M290.133,512h-68.267c-4.71,0-8.533-3.823-8.533-8.533v-85.333c0-4.71,3.823-8.533,8.533-8.533
		h68.267c4.71,0,8.533,3.823,8.533,8.533v85.333C298.667,508.177,294.844,512,290.133,512z M230.4,494.933h51.2v-68.267h-51.2
		V494.933z"/>
</g>
<g>
	<path style="fill:#FFFFFF;" d="M418.133,85.333h-128c-4.71,0-8.533-3.823-8.533-8.533s3.823-8.533,8.533-8.533h128
		c4.71,0,8.533,3.823,8.533,8.533S422.844,85.333,418.133,85.333z"/>
	<path style="fill:#FFFFFF;" d="M418.133,51.2h-128c-4.71,0-8.533-3.823-8.533-8.533s3.823-8.533,8.533-8.533h128
		c4.71,0,8.533,3.823,8.533,8.533S422.844,51.2,418.133,51.2z"/>
	<path style="fill:#FFFFFF;" d="M418.133,119.467h-128c-4.71,0-8.533-3.823-8.533-8.533c0-4.71,3.823-8.533,8.533-8.533h128
		c4.71,0,8.533,3.823,8.533,8.533C426.667,115.644,422.844,119.467,418.133,119.467z"/>
	<path style="fill:#FFFFFF;" d="M418.133,153.6h-128c-4.71,0-8.533-3.823-8.533-8.533c0-4.71,3.823-8.533,8.533-8.533h128
		c4.71,0,8.533,3.823,8.533,8.533C426.667,149.777,422.844,153.6,418.133,153.6z"/>
	<path style="fill:#FFFFFF;" d="M418.133,187.733h-128c-4.71,0-8.533-3.823-8.533-8.533s3.823-8.533,8.533-8.533h128
		c4.71,0,8.533,3.823,8.533,8.533S422.844,187.733,418.133,187.733z"/>
</g>
<rect x="366.933" y="213.333" style="fill:#D3843D;" width="51.2" height="34.133"/>
<g>
	<circle style="fill:#FFD782;" cx="145.067" cy="128" r="34.133"/>
	<path style="fill:#FFD782;" d="M145.067,170.667c-23.561,0-42.667-19.106-42.667-42.667s19.106-42.667,42.667-42.667
		s42.667,19.106,42.667,42.667C187.708,151.552,168.619,170.641,145.067,170.667z M145.067,102.4c-14.14,0-25.6,11.46-25.6,25.6
		c0,14.14,11.46,25.6,25.6,25.6c14.14,0,25.6-11.46,25.6-25.6C170.667,113.86,159.206,102.4,145.067,102.4z"/>
	<path style="fill:#FFD782;" d="M213.333,221.867c-1.323,0-2.628-0.307-3.814-0.896l-34.133-17.067l7.629-15.275l26.633,13.321
		l22.784-43.759l15.138,7.885l-26.667,51.2C219.435,220.1,216.516,221.867,213.333,221.867z"/>
</g>
<g>
	<rect x="110.933" y="196.267" style="fill:#238892;" width="68.267" height="85.333"/>
	<path style="fill:#238892;" d="M179.2,290.133h-68.267c-4.71,0-8.533-3.823-8.533-8.533v-85.333c0-4.71,3.823-8.533,8.533-8.533
		H179.2c4.71,0,8.533,3.823,8.533,8.533V281.6C187.733,286.31,183.91,290.133,179.2,290.133z M119.467,273.067h51.2V204.8h-51.2
		V273.067z"/>
</g>
<path d="M435.2,307.2c-23.561,0-42.667,19.106-42.667,42.667c0,23.561,19.106,42.667,42.667,42.667s42.667-19.106,42.667-42.667
	C477.841,326.315,458.752,307.226,435.2,307.2z M435.2,375.467c-14.14,0-25.6-11.46-25.6-25.6c0-14.14,11.46-25.6,25.6-25.6
	c14.14,0,25.6,11.46,25.6,25.6C460.8,364.006,449.34,375.467,435.2,375.467z"/>
<path d="M401.067,512h68.267c4.71,0,8.533-3.823,8.533-8.533v-85.333c0-4.71-3.823-8.533-8.533-8.533h-68.267
	c-4.71,0-8.533,3.823-8.533,8.533v85.333C392.533,508.177,396.356,512,401.067,512z M409.6,426.667h51.2v68.267h-51.2V426.667z"/>
<path d="M76.8,392.533c23.561,0,42.667-19.106,42.667-42.667c0-23.561-19.106-42.667-42.667-42.667s-42.667,19.106-42.667,42.667
	C34.159,373.419,53.248,392.508,76.8,392.533z M76.8,324.267c14.14,0,25.6,11.46,25.6,25.6c0,14.14-11.46,25.6-25.6,25.6
	s-25.6-11.46-25.6-25.6C51.2,335.727,62.66,324.267,76.8,324.267z"/>
<path d="M34.133,503.467c0,4.71,3.823,8.533,8.533,8.533h68.267c4.71,0,8.533-3.823,8.533-8.533v-85.333
	c0-4.71-3.823-8.533-8.533-8.533H42.667c-4.71,0-8.533,3.823-8.533,8.533V503.467z M51.2,426.667h51.2v68.267H51.2V426.667z"/>
<path d="M256,307.2c-23.561,0-42.667,19.106-42.667,42.667c0,23.561,19.106,42.667,42.667,42.667
	c23.561,0,42.667-19.106,42.667-42.667C298.641,326.315,279.552,307.226,256,307.2z M256,375.467c-14.14,0-25.6-11.46-25.6-25.6
	c0-14.14,11.46-25.6,25.6-25.6c14.14,0,25.6,11.46,25.6,25.6C281.6,364.006,270.14,375.467,256,375.467z"/>
<path d="M221.867,409.6c-4.71,0-8.533,3.823-8.533,8.533v85.333c0,4.71,3.823,8.533,8.533,8.533h68.267
	c4.71,0,8.533-3.823,8.533-8.533v-85.333c0-4.71-3.823-8.533-8.533-8.533H221.867z M281.6,494.933h-51.2v-68.267h51.2V494.933z"/>
<path d="M145.067,170.667c23.561,0,42.667-19.106,42.667-42.667s-19.106-42.667-42.667-42.667S102.4,104.439,102.4,128
	C102.426,151.552,121.515,170.641,145.067,170.667z M145.067,102.4c14.14,0,25.6,11.46,25.6,25.6c0,14.14-11.46,25.6-25.6,25.6
	c-14.14,0-25.6-11.46-25.6-25.6C119.467,113.86,130.927,102.4,145.067,102.4z"/>
<path d="M290.133,85.333h128c4.71,0,8.533-3.823,8.533-8.533s-3.823-8.533-8.533-8.533h-128c-4.71,0-8.533,3.823-8.533,8.533
	S285.423,85.333,290.133,85.333z"/>
<path d="M290.133,51.2h128c4.71,0,8.533-3.823,8.533-8.533s-3.823-8.533-8.533-8.533h-128c-4.71,0-8.533,3.823-8.533,8.533
	S285.423,51.2,290.133,51.2z"/>
<path d="M290.133,119.467h128c4.71,0,8.533-3.823,8.533-8.533c0-4.71-3.823-8.533-8.533-8.533h-128c-4.71,0-8.533,3.823-8.533,8.533
	C281.6,115.644,285.423,119.467,290.133,119.467z"/>
<path d="M290.133,153.6h128c4.71,0,8.533-3.823,8.533-8.533c0-4.71-3.823-8.533-8.533-8.533h-128c-4.71,0-8.533,3.823-8.533,8.533
	C281.6,149.777,285.423,153.6,290.133,153.6z"/>
<path d="M290.133,187.733h128c4.71,0,8.533-3.823,8.533-8.533s-3.823-8.533-8.533-8.533h-128c-4.71,0-8.533,3.823-8.533,8.533
	S285.423,187.733,290.133,187.733z"/>
<path d="M469.333,247.467V8.533c0-4.71-3.823-8.533-8.533-8.533H51.2c-4.71,0-8.533,3.823-8.533,8.533v238.933
	c0,4.71,3.823,8.533,8.533,8.533h51.2v25.6c0,4.71,3.823,8.533,8.533,8.533H179.2c4.71,0,8.533-3.823,8.533-8.533V256H460.8
	C465.51,256,469.333,252.177,469.333,247.467z M170.667,273.067h-51.2V204.8h51.2V273.067z M409.6,238.933h-34.133v-17.067H409.6
	V238.933z M452.267,238.933h-25.6v-25.6c0-4.71-3.823-8.533-8.533-8.533h-51.2c-4.71,0-8.533,3.823-8.533,8.533v25.6H187.733v-28.86
	l21.786,10.94c1.186,0.572,2.492,0.862,3.814,0.853c3.183,0,6.101-1.766,7.569-4.591l26.667-51.2l-15.138-7.885l-22.784,43.759
	l-26.633-13.321v0.085c-1.178-0.623-2.483-0.964-3.814-0.981h-68.267c-4.71,0-8.533,3.823-8.533,8.533v42.667H59.733V17.067h392.533
	V238.933z"/>
<g>
</g>
<g>
</g>
<g>
</g>
<g>
</g>
<g>
</g>
<g>
</g>
<g>
</g>
<g>
</g>
<g>
</g>
<g>
</g>
<g>
</g>
<g>
</g>
<g>
</g>
<g>
</g>
<g>
</g>
</svg>
